# xmcd
#
# Track frame offsets: 
#        150
#        16390
#        33437
#        36317
#        51372
#        60802
#        70327
#        79567
#        97922
#        107570
#        124277
#        131027
#        143500
#        150472
#        161707
#        169792
#        188692
#        205902
#        209350
#        223292
#        232195
#
# Disc length: 3193 seconds
#
# Revision: 0
# Processed by: cddbd v1.4b42PL1 Copyright (c) Steve Scherf et al.
# Submitted via: ExactAudioCopy v0.90a11
#
DISCID=280c7715
DTITLE=Various Artist - Prison Songs Volume Two: Don'tcha Hear Poor M
DTITLE=other Calling?
DYEAR=1900
DGENRE=
TTITLE0=Don'tcha Hear Poor Mother Calling?
TTITLE1=John Henry
TTITLE2=Strongest Man I Ever Saw
TTITLE3=Well, I Wonder
TTITLE4=Lies
TTITLE5=I'm Goin' Home
TTITLE6=More Lies
TTITLE7=O 'Berta
TTITLE8=Disability Boogie Woogie
TTITLE9=O Rosie
TTITLE10=Hollers
TTITLE11=Stewball
TTITLE12=Fox Chase
TTITLE13=Katy Left Memphis
TTITLE14=About Prison Singers
TTITLE15=Rosie
TTITLE16=High Rollin' Sergeant
TTITLE17=Garbage Man
TTITLE18=When I Went to Leland
TTITLE19=Prodigal Son
TTITLE20=I'm Goin' to Memphis
EXTD=
EXTT0=
EXTT1=
EXTT2=
EXTT3=
EXTT4=
EXTT5=
EXTT6=
EXTT7=
EXTT8=
EXTT9=
EXTT10=
EXTT11=
EXTT12=
EXTT13=
EXTT14=
EXTT15=
EXTT16=
EXTT17=
EXTT18=
EXTT19=
EXTT20=
PLAYORDER=
